PathFileType	4	(X/Y/Z)	/Users/niels/Desktop/University/Third Semester/Perception and Action/Exam/Gymnastics Motion Tracking/Code for Gym Tracking/Analyzed Data/Webcam_Backflip/id2006_1_trajectory_Sports2D/id2006_1_trajectory_Sports2D_px_person00.trc
DataRate	CameraRate	NumFrames	NumMarkers	Units	OrigDataRate	OrigDataStartFrame	OrigNumFrames
29.797297297297295	29.797297297297295	8	22	m	29.797297297297295	92	148
Frame#	Time	Hip			RHip			RKnee			RAnkle			RBigToe			RSmallToe			RHeel			LHip			LKnee			LAnkle			LBigToe			LSmallToe			LHeel			Neck			Head			Nose			RShoulder			RElbow			RWrist			LShoulder			LElbow			LWrist		
		X1	Y1	Z1	X2	Y2	Z2	X3	Y3	Z3	X4	Y4	Z4	X5	Y5	Z5	X6	Y6	Z6	X7	Y7	Z7	X8	Y8	Z8	X9	Y9	Z9	X10	Y10	Z10	X11	Y11	Z11	X12	Y12	Z12	X13	Y13	Z13	X14	Y14	Z14	X15	Y15	Z15	X16	Y16	Z16	X17	Y17	Z17	X18	Y18	Z18	X19	Y19	Z19	X20	Y20	Z20	X21	Y21	Z21	X22	Y22	Z22
92	3.087528344671202	1.212575856380179	-0.7746164337440633	0.0	1.1747013381837177	-0.7725254773322541	0.0	1.2250856631528553	-1.0644613268475713	0.0	0.6732747221930251	-0.9288760858955055	0.0	0.4885078124999999	-1.2011458740234375	0.0			0.0	0.6023291015617442	-0.9143344726580518	0.0	1.2510166158366003	-0.7752855716729187	0.0	1.2977802793695612	-1.058825259814431	0.0	0.6856775934717187	-0.9791255905993553	0.0			0.0	0.6565966796915516	-1.0058969726592373	0.0	0.6603486567256821	-0.9869392660623818	0.0	1.1631839914132795	-0.24258876329327037	0.0	1.1841335366763641	-0.039394019080402895	0.0	1.234217873948927	-0.1354889860374616	0.0	1.1205250046487136	-0.2762901489956491	0.0	1.0239236372772003	-0.46928443563946626	0.0	1.2074080354856933	-0.7012058057301354	0.0	1.2113201953511483	-0.30370847418974967	0.0	1.2192880533210273	-0.5059083701692823	0.0	1.295934985522499	-0.7001858947740839	0.0
93	3.12108843537415	1.226437197673736	-0.7661538736624315	0.0	1.1942741119952764	-0.7658567495455707	0.0	1.2556551219272165	-1.063180181017774	0.0	0.6661697167556304	-0.9274301360503758	0.0	0.4885078124999999	-1.2011458740234375	0.0			0.0	0.6023291015629983	-0.9143344726550643	0.0	1.261105973464995	-0.7679222382238771	0.0	1.3112322645491126	-1.0560585388425354	0.0	0.6802772103569295	-0.9782452743323123	0.0			0.0	0.6565966796973371	-1.0058969726635028	0.0	0.6603726403344881	-0.9869393795707002	0.0	1.168332855339212	-0.23972599149642163	0.0	1.188313470668646	-0.03746374749584129	0.0	1.2407799891377655	-0.13196869425689578	0.0	1.1303538706950742	-0.272120407095473	0.0	1.0379254199936063	-0.4643076382113663	0.0	1.2308879557743622	-0.6852098634556661	0.0	1.2122593872866625	-0.2992972741440681	0.0	1.2211431030186024	-0.4979777789548096	0.0	1.305873438232144	-0.6829693607036951	0.0
94	3.154648526077098	1.240922266158115	-0.7553783154347623	0.0	1.2127765689472616	-0.7575714484482658	0.0	1.2807308331648481	-1.061175562485725	0.0	0.657521317718826	-0.925693319736412	0.0	0.4885078124999999	-1.2011458740234375	0.0			0.0	0.602329101565711	-0.9143344726486023	0.0	1.2726112226466935	-0.7589569367091696	0.0	1.3265281844020431	-1.0527957958033858	0.0	0.6831959579321696	-0.9785334502157773	0.0			0.0	0.6565966797049225	-1.0058969726690952	0.0	0.6603867347306044	-0.9869394462788003	0.0	1.1728108094630139	-0.23599099198332515	0.0	1.1931276045009678	-0.034550667190342214	0.0	1.24677552398768	-0.1276063909250076	0.0	1.1388550137350042	-0.26695811081923426	0.0	1.050598266918993	-0.45773663858233987	0.0	1.250573580222072	-0.6685637397904352	0.0	1.213102967325112	-0.2943023386447848	0.0	1.2225113335841036	-0.48950998663498047	0.0	1.313860873369313	-0.6649486436903763	0.0
95	3.1882086167800456	1.2558641621398121	-0.7427433227467002	0.0	1.230060662757504	-0.7477024111500419	0.0	1.3014644575936782	-1.0583930581124341	0.0	0.6508098503799582	-0.9243672999122704	0.0	0.4885078124999999	-1.2011458740234375	0.0			0.0	0.6023291015701837	-0.9143344726379474	0.0	1.2856242792997785	-0.7482618629439445	0.0	1.3432140316546655	-1.0490351262102942	0.0	0.7043755089525122	-0.9814502971930145	0.0			0.0	0.6565966797119098	-1.0058969726742466	0.0	0.6603929438896542	-0.9869394756694289	0.0	1.1767119230138807	-0.2317509406393254	0.0	1.1982284647655024	-0.0309057145757372	0.0	1.251924384678515	-0.12256755246385685	0.0	1.1459790526281948	-0.26116850797128605	0.0	1.0623350339699653	-0.4501883628772372	0.0	1.2673953825064	-0.6520728353448237	0.0	1.2141378872558106	-0.28899568694043354	0.0	1.2236963257632942	-0.48080476956984264	0.0	1.3203066004795325	-0.6472363915396306	0.0
96	3.221768707482993	1.2705470707643598	-0.7293651844937574	0.0	1.2461244810971703	-0.7369947613738467	0.0	1.319997679829032	-1.054852304795191	0.0	0.6531938776043557	-0.9248888566592965	0.0	0.4885078124999999	-1.2011458740234375	0.0			0.0	0.6023291015759967	-0.9143344726240996	0.0	1.2988549353825698	-0.7364497248692984	0.0	1.3588396476981726	-1.0447436086734763	0.0	0.75595792201948	-0.9888192919517318	0.0			0.0	0.6565966797128813	-1.0058969726749627	0.0	0.6603942226516137	-0.9869394817234907	0.0	1.180204713817196	-0.2274322846161347	0.0	1.203289644985495	-0.02692024240570243	0.0	1.2562153996374517	-0.11721938656274293	0.0	1.1518060073533611	-0.25523723917227015	0.0	1.073369202999729	-0.44246095896162047	0.0	1.2824898297529999	-0.6363539689856571	0.0	1.2153928567695667	-0.2836809782667171	0.0	1.2245003509237855	-0.4721279476328769	0.0	1.3263270893543584	-0.6310347081538863	0.0
97	3.255328798185941	1.2839935581735002	-0.7166878543579446	0.0	1.2610792224902478	-0.7265752965878551	0.0	1.3386889639200164	-1.050763691202211	0.0	0.6760626052869311	-0.929537051322183	0.0	0.4885078124999999	-1.2011458740234375	0.0			0.0	0.6023291015812571	-0.9143344726115684	0.0	1.3102396952499091	-0.7246423012476846	0.0	1.3701530873769996	-1.0400970836516283	0.0	0.8474796147831617	-1.002151983536793	0.0			0.0	0.6565966796986443	-1.0058969726644664	0.0	0.6603931210834494	-0.9869394765037277	0.0	1.1833844164473373	-0.22338918685789552	0.0	1.208027629686973	-0.02306137748346805	0.0	1.2598122973013461	-0.11207451451595513	0.0	1.1565708668990697	-0.24975040738153204	0.0	1.0837584055162597	-0.4354310166825027	0.0	1.2969014318580478	-0.6217705450826365	0.0	1.2164160750188084	-0.27862181119914026	0.0	1.2247121498900801	-0.4639329151490494	0.0	1.3329499342886504	-0.6175333682140518	0.0
98	3.2888888888888888	1.2954985416050668	-0.7059904792755772	0.0	1.2750636430133808	-0.7174760943188001	0.0	1.359086360512897	-1.0465073302748829	0.0	0.7336111012048213	-0.941140270155121	0.0	0.4885078124999999	-1.2011458740234375	0.0			0.0	0.6023291015817401	-0.9143344726104176	0.0	1.3179635969003103	-0.7140740563805051	0.0	1.3748257253622325	-1.0355685036198368	0.0	0.975933131592693	-1.0212150749157578	0.0			0.0	0.6565966796568714	-1.0058969726336688	0.0	0.6603913340810277	-0.9869394680232818	0.0	1.1862615633760392	-0.2198685975335448	0.0	1.2121714433948458	-0.019739587641521793	0.0	1.2628741758064383	-0.10763820619194851	0.0	1.160669067210587	-0.24526983098558774	0.0	1.0934610780546121	-0.42973457123924513	0.0	1.3114597844158764	-0.6086175052673793	0.0	1.2164367504937885	-0.2740301536531898	0.0	1.2244398183466765	-0.45685277177593436	0.0	1.340532441118238	-0.6076768226911529	0.0
99	3.3224489795918366	1.3049234678525372	-0.6979979856931552	0.0	1.288197902000407	-0.7103005001869205	0.0	1.3807822374737742	-1.0426217507764879	0.0	0.8375553192683843	-0.9620070361491263	0.0	0.4885078124999999	-1.2011458740234375	0.0			0.0	0.6023291015703346	-0.9143344726375876	0.0	1.3213310426471827	-0.7057258536247597	0.0	1.372956870800211	-1.0318628257265337	0.0	1.1177604753695738	-1.0428111493662158	0.0			0.0	0.6565966795756976	-1.0058969725738223	0.0	0.6603897461868264	-0.9869394604596576	0.0	1.1888454492449974	-0.21706006204567485	0.0	1.2155553275737168	-0.017167893565728246	0.0	1.2654948869092932	-0.10425566566385931	0.0	1.1645130957596979	-0.24212048651716744	0.0	1.1024488498852605	-0.42553237753527184	0.0	1.3267392816953816	-0.5972407505426983	0.0	1.214753661918079	-0.2700969442589812	0.0	1.2239324672695626	-0.45146984622587805	0.0	1.3488116132324275	-0.6016332521963608	0.0
